
<svg width="483px" height="56px" viewBox="179 246 483 56" version="1.1" xmlns="http://www.w3.org/2000/svg" xmlns:xlink="http://www.w3.org/1999/xlink">
    <!-- Generator: Sketch 42 (36781) - http://www.bohemiancoding.com/sketch -->
    <desc>Created with Sketch.</desc>
    <defs></defs>
    <g id="Group" stroke="none" stroke-width="1" fill="none" fill-rule="evenodd" transform="translate(179.000000, 246.000000)">
        <path d="M222,54.5 L222,21.5 C224.5,23.6 227.8,24.9 231.3,24.9 C234.9,24.9 238.3,23.6 240.8,21.3 L240.8,54.5 L222,54.5 L222,54.5 Z M185.6,54.5 L185.6,16.6 L168.5,16.6 L168.5,3.5 L218.7,3.5 C217.6,5.5 217,7.9 217,10.4 C217,12.6 217.5,14.7 218.4,16.6 L204.6,16.6 L204.6,54.5 L185.6,54.5 L185.6,54.5 Z" id="Shape" fill="#000000" fill-rule="nonzero"></path>
        <path d="M305.7,22.5 C304,9.7 294.4,2.3 276.9,2.3 C257.3,2.2 244.6,12.9 244.6,29 C244.6,44.1 256.3,55.7 276.9,55.7 C295.6,55.7 306,44.8 306,34.5 L286.7,34.5 C285.5,39.3 283,43 276.3,43 C267.1,43 264.2,35.9 264.2,29 C264.2,22.1 267.1,15 276.3,15 C284.4,15 286.2,20.6 286.6,22.5 L305.7,22.5 L305.7,22.5 Z" id="Shape" fill="#000000" fill-rule="nonzero"></path>
        <polygon id="Shape" fill="#000000" fill-rule="nonzero" points="309.2 54.5 328.8 54.5 328.8 39.4 334.3 34.7 350 54.5 374.4 54.5 347.6 23.4 370.7 3.5 346.5 3.5 329 21.1 328.8 21.1 328.8 3.5 309.2 3.5"></polygon>
        <polygon id="Shape" fill="#000000" fill-rule="nonzero" points="376.8 54.5 430.6 54.5 430.6 41.4 396.5 41.4 396.5 35.1 426.6 35.1 426.6 22.9 396.5 22.9 396.5 16.6 429.6 16.6 429.6 3.5 376.8 3.5"></polygon>
        <polygon id="Shape" fill="#000000" fill-rule="nonzero" points="445.4 54.5 465.1 54.5 465.1 16.6 482.9 16.6 482.9 3.5 427.6 3.5 427.6 16.6 445.4 16.6"></polygon>
        <path d="M221,10.8 C221,5 225.7,0.3 231.5,0.3 C237.3,0.3 242,5 242,10.8 C242,16.6 237.3,21.3 231.5,21.3 C225.7,21.3 221,16.6 221,10.8 L221,10.8 Z" id="Shape" fill="#0075BE" fill-rule="nonzero"></path>
        <polygon id="Shape" fill="#0075BE" fill-rule="nonzero" points="59.7 53.8 109.3 53.8 109.3 41.5 78.1 41.5 78.1 34.7 107.1 34.7 107.1 22.3 78.1 22.3 78.1 15.5 109.3 15.5 109.3 3.2 59.7 3.2"></polygon>
        <path d="M0,53.8 L19.1,53.8 L21,48 L39.7,48 L41.6,53.8 L60.7,53.8 L41.3,3.1 L19.2,3.1 L0,53.8 L0,53.8 Z M35.8,35.7 L25,35.7 L30.4,18.5 L35.8,35.7 L35.8,35.7 Z" id="Shape" fill="#0075BE"></path>
        <path d="M111.3,54.3 L129,54.3 L129,38.5 L141.6,38.5 C144.9,38.5 146,40.8 146.2,44.6 C146.5,49.1 146.5,52.8 147.1,54.3 L166.4,54.3 C165.5,52.7 164.4,50.6 164.2,48.3 L163.4,37.1 C163.1,32.7 161,30.1 158.3,29.2 C163.9,27.1 165.2,22.2 165.2,16.8 C165.2,12.5 162.9,7.5 160.1,5.6 C157,3.6 154.4,3.1 149.4,3.1 L111.2,3.1 L111.2,54.3 L111.3,54.3 Z M129,16 L141.3,16 C145,16 146.4,17.6 146.4,20.8 C146.4,24 145,25.6 141.3,25.6 L129,25.6 L129,16 L129,16 Z" id="Shape" fill="#0075BE"></path>
    </g>
</svg>
